<?xml version="1.0" encoding="UTF-8" standalone="no"?>
<!-- Created with Inkscape (http://www.inkscape.org/) -->

<svg
   version="1.1"
   id="svg1"
   width="1080"
   height="1350"
   viewBox="0 0 1080 1350"
   sodipodi:docname="raioLogoFastVetorizado.svg"
   inkscape:version="1.4.2 (f4327f4, 2025-05-13)"
   xmlns:inkscape="http://www.inkscape.org/namespaces/inkscape"
   xmlns:sodipodi="http://sodipodi.sourceforge.net/DTD/sodipodi-0.dtd"
   xmlns="http://www.w3.org/2000/svg"
   xmlns:svg="http://www.w3.org/2000/svg">
  <defs
     id="defs1" />
  <sodipodi:namedview
     id="namedview1"
     pagecolor="#505050"
     bordercolor="#eeeeee"
     borderopacity="1"
     inkscape:showpageshadow="0"
     inkscape:pageopacity="0"
     inkscape:pagecheckerboard="0"
     inkscape:deskcolor="#505050"
     inkscape:zoom="0.29888889"
     inkscape:cx="-155.57621"
     inkscape:cy="613.94052"
     inkscape:window-width="1920"
     inkscape:window-height="1009"
     inkscape:window-x="1912"
     inkscape:window-y="-8"
     inkscape:window-maximized="1"
     inkscape:current-layer="g1" />
  <g
     inkscape:groupmode="layer"
     inkscape:label="Image"
     id="g1">
    <path
       style="fill:#ffffff;fill-opacity:1;stroke-width:5.43517"
       d="m 309.24183,1291.9693 c -3.73668,-1.542 -6.79395,-8.5726 -6.79395,-15.623 0,-7.0506 8.84516,-41.6998 19.65568,-76.9981 10.80998,-35.2983 33.86644,-112.1314 51.23556,-170.7403 17.36912,-58.60873 39.94186,-138.09781 50.16048,-176.64239 10.21919,-38.5446 17.53218,-73.1383 16.25058,-76.87498 -1.7773,-5.1841 -33.52893,-6.79392 -133.99883,-6.79392 -101.6879,0 -133.94498,-1.66383 -141.66236,-7.30707 -7.06733,-5.16765 -8.98377,-11.13524 -6.54665,-20.38184 1.89524,-7.19109 96.82127,-132.91988 210.94646,-279.39726 114.12518,-146.47739 232.25715,-298.11816 262.51573,-336.97951 42.56758,-54.669751 58.24745,-71.03594 69.29875,-72.33178 10.41755,-1.22151 15.22331,1.28732 17.75666,9.26905 2.08381,6.564735 -20.56556,99.28309 -56.60225,231.71085 -33.04191,121.42183 -60.07638,226.70118 -60.07638,233.95407 v 13.18704 h 137.93114 c 115.75628,0 139.01493,1.30602 144.67291,8.12376 3.70839,4.46808 5.60749,12.46357 4.22039,17.76773 -1.387,5.30417 -80.71038,111.09888 -176.27396,235.09936 -95.56304,124.00046 -220.17916,285.36629 -276.92378,358.59099 -56.74464,73.2244 -106.72739,133.5935 -111.07226,134.1534 -4.34486,0.5598 -10.95727,-0.2436 -14.69392,-1.7861 z"
       id="path1" />
  </g>
</svg>
